# xmcd
#
# Track frame offsets:
#	150
#	12914
#	26821
#	42248
#	55810
#	68013
#	81811
#	95034
#	107678
#	121613
#	142898
#	157961
#	177391
#	188976
#	202397
#	216019
#	229227
#	242434
#	256446
#	269930
#	282558
#	296545
#
# Disc length: 4131 seconds
#
# Revision: 1
# Processed by: cddbd v1.5.2PL0 Copyright (c) Steve Scherf et al.
# Submitted via: audiograbber 1.83.01
#
DISCID=4b102116
DTITLE=Compiled  By Stefan Grossman - Country Blues Guitar
DYEAR=1900
DGENRE=Blues
TTITLE0=Scrapper Blackwell - Blue Day Blues
TTITLE1=Scrapper Blackwell - Kokomo Blues
TTITLE2=Blind Blake - Georgia Bound
TTITLE3=Big Bill Broonzy - Big Bill Blues
TTITLE4=Big Bill Broonzy - Mississippi River Blues
TTITLE5=Big Bill Broonzy - Mr. Conductor Man
TTITLE6=Big Bill Broonzy - Saturday Night Rub
TTITLE7=Big Bill Broonzy - Stove Pipe Stomp
TTITLE8=Big Bill Broonzy - Worryin' You Off My Mind
TTITLE9=Rev. Gary Davis - Cincinatti Flow Rag
TTITLE10=Rev. Gary Davis - Italian Rag
TTITLE11=Rev. Gary Davis - Sally, Where'd You Get Your Liquor From?
TTITLE12=Rev. Gary Davis - Two Step Candyman
TTITLE13=Blind Lemon Jefferson - Easy Rider Blues
TTITLE14=Blind Lemon Jefferson - Hot Dogs
TTITLE15=Blind Lemon Jefferson - One Kind Favor
TTITLE16=Lonnie Johnson - Go Back To Your No Good Man
TTITLE17=Lonnie Johnson - Life Saver Blues
TTITLE18=Charley Jordan - Honkie Tonk Blues
TTITLE19=Charley Jordan - Keep It Clean
TTITLE20=Josh White - Jesus Gonna Make Up My Dying Bed
TTITLE21=Josh White - Little Brother Blues
EXTD=This is the wonderful companion CD to the instructional book about how to 
EXTD=play blues guitar by Stefan Grossman.  The ISBN for the book is: 978-0-739
EXTD=0-4281-6\n\n
EXTT0=
EXTT1=
EXTT2=
EXTT3=
EXTT4=
EXTT5=
EXTT6=
EXTT7=
EXTT8=
EXTT9=
EXTT10=
EXTT11=
EXTT12=
EXTT13=
EXTT14=
EXTT15=
EXTT16=
EXTT17=
EXTT18=
EXTT19=
EXTT20=
EXTT21=
PLAYORDER=
